<svg width="1532" height="1080" viewBox="0 0 1532 1080" fill="none" xmlns="http://www.w3.org/2000/svg">
<g clip-path="url(#clip0_324_1571)">
<path fill-rule="evenodd" clip-rule="evenodd" d="M181.8 -106.308C148.598 -96.836 111.509 -86.255 79.8629 -104.618C78.4904 -105.415 79.7647 -107.54 81.1372 -106.744C99.4474 -96.1101 120.285 -95.6753 140.552 -99.1338C154.51 -101.464 168.385 -105.43 182.293 -109.406C208.405 -116.869 234.637 -124.367 261.772 -121.143C292.712 -117.419 316.884 -98.614 328.357 -68.9156C340.974 -36.1973 339.822 1.18598 335.665 35.2996C333.497 52.7866 330.377 70.1284 326.319 87.2449C326.069 88.3236 325.817 89.399 325.566 90.4721C323.163 100.732 320.81 110.774 320.464 121.376C320.177 135.405 321.806 149.425 325.303 163.033C335.923 206.58 360.752 250.819 395.79 278.867C415.172 294.4 437.613 300.363 461.517 304.319C488.06 308.565 514.983 309.487 541.684 307.065C567.366 304.712 592.703 299.575 617.266 291.741C639.306 284.746 659.81 275.328 680.684 265.74C682.628 264.847 684.575 263.952 686.527 263.058C716.788 249.21 750.64 242.583 783.686 248.995C846.695 261.411 888.815 318.389 903.532 379.141C911.839 414.622 912.53 451.442 905.56 487.074C903.505 497.957 900.303 508.478 897.102 518.993C894.097 528.868 891.093 538.738 889.042 548.898C884.183 573.264 884.014 598.403 888.546 622.925C897.278 670.136 924.158 715.663 971.412 730.131C993.031 736.761 1016.23 737.347 1038.37 734.095C1046.16 732.954 1053.84 731.197 1061.52 729.439C1065.13 728.612 1068.75 727.785 1072.37 727.022C1074.34 726.605 1076.32 726.191 1078.29 725.776C1088.1 723.713 1097.9 721.651 1107.65 719.317C1131.65 713.452 1156.16 705.315 1175.15 688.723C1178.33 685.981 1181.27 682.995 1184.21 680.006C1187.77 676.39 1191.34 672.771 1195.33 669.575C1202.17 664.113 1209.45 659.232 1217.08 654.982C1247.78 637.713 1287.78 624.686 1323.19 632.72C1355.64 640.053 1374.81 670.875 1385.79 700.508C1395.41 726.536 1400.88 753.83 1406.34 781.07C1408.8 793.366 1411.26 805.65 1414.1 817.803C1418.61 837.096 1423.87 856.459 1432.19 874.495C1440.93 892.962 1453.41 909.361 1468.8 922.603C1505.93 955.469 1553.61 972.353 1599.3 988.36C1600.79 988.883 1600.1 991.258 1598.61 990.735C1576.64 983.044 1554.66 975.189 1533.41 965.547C1495.2 948.217 1455.85 923.574 1434.9 885.24C1418.58 855.474 1411.74 821.207 1405.1 787.946C1404.19 783.4 1403.29 778.873 1402.36 774.379C1401.83 771.785 1401.3 769.169 1400.77 766.538C1393.6 731.253 1385.85 693.05 1364.13 663.981C1353.81 650.229 1339.88 639.18 1323.19 635.217C1304.33 630.749 1284.21 633.313 1265.77 638.033C1246.27 642.989 1227.65 650.955 1210.56 661.655C1202.49 666.646 1194.98 672.504 1188.14 679.13C1187.32 679.943 1186.51 680.753 1185.7 681.561C1179.35 687.91 1173.19 694.057 1165.51 699.09C1145.99 711.943 1123.11 718.36 1100.52 723.519C1095.92 724.57 1091.3 725.664 1086.67 726.761C1068.57 731.05 1050.26 735.388 1031.94 737.391C991.997 741.734 948.524 732.682 921.14 700.368C891.673 665.545 880.121 617.27 883.394 572.342C884.714 554.621 889.434 538.389 894.254 521.811C895.581 517.248 896.915 512.659 898.188 508.006C903.56 488.538 906.726 468.487 907.627 448.244C909.204 411.721 903.14 374.407 887.873 340.993C874.52 311.642 853.813 285.299 826.428 268.388C797.883 250.814 764.298 245.411 731.851 251.129C712.341 254.57 694.084 261.823 676.438 270.709C654.672 281.539 631.958 290.302 608.582 296.888C559.741 310.948 507.759 315.06 457.43 306.074C435.423 302.094 414.848 296.564 396.73 282.713C380.37 270.181 366.819 254.072 355.389 236.862C330.854 199.877 312.257 151.713 319.433 106.772C320.907 97.5381 323.032 88.4228 325.16 79.2979C327.266 70.2621 329.375 61.2169 330.856 52.0381C334.043 33.1497 335.729 14.016 335.896 -5.17738C335.949 -37.8588 330.778 -75.8773 305.722 -99.2981C274.776 -128.162 230.023 -119.54 193.95 -109.722C189.971 -108.639 185.916 -107.482 181.8 -106.308ZM75.5776 -97.5786C106.98 -79.3024 143.773 -88.5655 177.062 -96.9464L177.062 -96.9464C181.003 -97.9386 184.894 -98.9183 188.722 -99.8386C225.216 -108.571 269.071 -115.669 299.415 -86.5584C324.166 -62.7374 329.451 -24.828 329.511 7.99006C329.419 26.6281 327.906 45.217 324.986 63.5891C323.694 72.0992 321.826 80.5261 319.959 88.9472L319.959 88.9476C317.77 98.8221 315.582 108.688 314.327 118.671C308.66 163.722 326.795 211.547 351.415 248.552C362.7 265.49 376.134 281.362 392.378 293.574C410.346 307.051 431.172 312.541 452.858 316.271C501.936 324.718 552.703 320.466 600.477 307.726C624.056 301.533 647.086 293.402 669.342 283.413C687.41 275.203 705.453 268.062 725.118 264.932C757.415 259.761 790.762 265.426 819.005 282.827C846.546 299.803 867.446 326.202 880.913 355.689C896.124 388.871 902.26 425.983 900.821 462.331C899.997 482.458 896.94 502.404 891.71 521.789C890.98 524.576 890.24 527.345 889.503 530.104L889.503 530.104C884.607 548.43 879.836 566.288 878.867 585.74C876.566 630.374 888.162 678.249 918.334 712.167C945.773 743.119 989.133 751.113 1028.05 746.668C1046.81 744.514 1065.62 739.895 1084.11 735.352C1088.14 734.362 1092.16 733.374 1096.16 732.417C1118.5 727.072 1141.33 720.24 1160.87 707.584C1167.93 703.036 1173.82 697.521 1179.83 691.9C1181.22 690.607 1182.61 689.307 1184.02 688.013C1191.01 681.686 1198.63 676.113 1206.76 671.382C1224.31 660.947 1243.38 653.37 1263.27 648.921C1281.37 644.856 1301.15 643.049 1319.33 648.229C1336.19 653.033 1350.11 665.167 1360.15 679.498C1380.49 708.49 1388.29 745.21 1395.62 779.715C1396.16 782.232 1396.69 784.738 1397.23 787.228C1398.09 791.258 1398.94 795.315 1399.8 799.39C1406.79 832.688 1414.02 867.103 1430.97 896.676C1452.47 934.222 1491.46 958.34 1529.41 975.401C1550.35 984.855 1571.98 992.545 1593.61 1000.13C1595.1 1000.66 1595.79 998.283 1594.3 997.759C1549.23 981.951 1502.41 965.335 1465.42 933.434C1449.86 920.405 1437.11 904.221 1428.01 885.926C1419.51 868.303 1414.01 849.346 1409.32 830.401C1406.19 817.748 1403.49 804.951 1400.79 792.146L1400.79 792.139C1395.29 766.035 1389.78 739.9 1380.56 714.893C1369.68 685.44 1351.03 654.452 1319.23 645.697C1284.62 636.264 1244.84 648.339 1214.19 664.409C1206.27 668.5 1198.69 673.234 1191.53 678.565C1187.13 681.882 1183.18 685.646 1179.22 689.414C1176.42 692.082 1173.61 694.752 1170.65 697.268C1151.77 713.303 1127.89 721.695 1104.35 727.861C1081.72 733.766 1058.42 739.545 1035.34 743.207C1013.2 746.724 990.019 746.36 968.289 740.104C946.697 734.073 927.559 721.049 913.778 703.009C899.033 683.749 889.612 660.617 884.863 636.837C879.903 612.1 879.542 586.678 883.798 561.894C885.613 551.204 888.537 540.814 891.462 530.425C894.312 520.301 897.161 510.177 898.983 499.776C905.581 464.36 904.611 427.839 896.137 392.693C881.124 332.38 839.141 276.474 776.806 263.528C743.943 256.704 710.174 262.76 679.751 275.931C656.829 285.875 634.203 295.462 610.161 302.483C585.47 309.834 560.104 314.677 534.432 316.942C508.62 319.188 482.61 318.333 456.937 314.395C433.306 310.66 410.571 304.808 391.376 289.64C356.619 262.261 332.312 218.614 321.437 175.844C317.93 162.642 316.04 149.063 315.81 135.418C316.015 123.281 317.621 111.224 320.597 99.4969C324.546 82.2393 327.547 64.7621 329.585 47.1462C333.414 13.5 334.244 -23.1315 322.06 -55.3805C310.979 -84.9477 287.535 -104.561 256.718 -109.195C230.004 -113.168 203.78 -106.514 177.668 -99.8885C163.741 -96.3546 149.845 -92.8289 135.925 -90.9281C115.733 -88.1626 95.0156 -89.0968 76.8612 -99.6655C75.4886 -100.462 74.2143 -98.3366 75.5869 -97.5399L75.5776 -97.5786ZM172.203 -87.5491C138.93 -80.2875 102.449 -72.3255 71.3391 -90.4275L71.3298 -90.4662C69.9573 -91.2629 71.2172 -93.3646 72.5852 -92.5872C90.3905 -82.2215 110.622 -80.721 130.621 -82.7858C144.599 -84.2378 158.569 -87.336 172.571 -90.441C198.22 -96.129 223.973 -101.84 250.062 -97.4965C280.73 -92.3974 303.973 -72.45 315.178 -43.0352C327.616 -10.4786 326.941 26.3817 323.294 60.4548C321.36 78.0129 318.51 95.445 314.756 112.677C309.194 138.576 310.919 164.204 317.925 189.797C329.27 231.268 352.59 273.555 386.666 300.177C405.089 314.548 426.797 320.38 449.312 324.054C474.601 327.951 500.22 328.85 525.656 326.734C575.238 323.052 624.152 309.384 669.804 289.95C700.601 276.833 734.493 270.626 767.746 277.234C829.88 289.594 872.681 343.974 888.674 403.95C897.738 439.066 899.245 475.694 893.09 511.312C891.419 521.435 888.855 531.327 886.293 541.217C883.436 552.239 880.581 563.258 878.963 574.589C875.405 598.751 876.022 623.401 880.787 647.427C885.541 671.062 894.883 693.947 909.615 713.067C923.302 730.766 942.219 743.512 963.519 749.387C984.587 755.474 1007.05 755.909 1028.58 752.802C1051.74 749.368 1075.12 743.262 1097.71 737.203C1122 730.735 1146.53 721.962 1166.32 705.811C1168.96 703.628 1171.49 701.342 1174.01 699.061C1177.97 695.476 1181.93 691.903 1186.28 688.761C1193.77 683.383 1201.67 678.637 1209.93 674.572C1240.7 659.251 1280.62 647.838 1314.77 658.446C1345.87 668.125 1364.13 698.798 1375.12 727.998C1384.22 752.318 1389.84 777.731 1395.47 803.122L1395.47 803.124L1395.47 803.132L1395.47 803.14C1398.44 816.556 1401.41 829.965 1404.89 843.203C1409.71 861.605 1415.42 880.021 1424.01 897.053C1433.45 915.195 1446.44 931.207 1462.15 944.099C1498.84 975.127 1545.01 991.449 1589.38 1007C1590.87 1007.52 1590.19 1009.89 1588.69 1009.37C1567.41 1001.92 1546.14 994.329 1525.53 985.107C1487.94 968.326 1449.67 944.875 1427.54 908.461C1409.69 879.096 1402 844.277 1394.61 810.816L1394.58 810.708C1393.85 807.391 1393.12 804.087 1392.38 800.804C1391.75 797.998 1391.13 795.175 1390.5 792.338C1382.96 758.326 1375 722.423 1355.24 693.56C1345.32 679.077 1331.57 666.454 1314.83 661.049C1296.87 655.24 1277.13 656.548 1259 660.212C1239.08 664.253 1219.93 671.431 1202.23 681.488C1193.02 686.675 1185 693.391 1176.97 700.113C1169.93 706.013 1162.87 711.918 1155.01 716.802C1135.25 729.079 1112.62 736.068 1090.3 741.592C1086.74 742.474 1083.16 743.38 1079.57 744.288L1079.54 744.295L1079.54 744.296L1079.54 744.296C1060.65 749.074 1041.4 753.942 1022.16 756.036C983.915 760.197 941.381 752.311 914.151 722.23C883.816 688.801 872.687 641.121 874.47 596.836C875.293 575.714 880.19 556.255 885.258 536.117L885.274 536.056L885.785 534.023C885.898 533.576 886.01 533.127 886.123 532.679C891.006 513.298 893.73 493.398 894.244 473.355C895.099 437.414 888.539 400.873 873.098 368.237C859.318 338.948 837.98 312.898 810.225 296.281C781.532 279.09 747.842 273.753 715.303 279.002C697.216 281.915 680.728 288.472 663.896 295.166C661.988 295.925 660.075 296.686 658.155 297.443C635.975 306.175 613.225 313.361 590.063 318.953C543.123 330.328 493.28 334.338 445.361 325.879C424.739 322.243 404.741 316.779 387.672 304.048C371.795 292.28 358.676 276.886 347.649 260.439C323.515 224.462 306.347 179.004 308.952 135.136C309.644 123.275 312.081 111.54 314.514 99.8263C316.085 92.2611 317.655 84.705 318.751 77.1298C321.56 58.7206 322.986 40.1067 323.016 21.4498C322.868 -11.7359 317.48 -49.8251 292.764 -74.0842C263.144 -103.184 219.651 -97.5021 183.509 -89.9791C179.791 -89.2053 176.019 -88.3819 172.204 -87.5493L172.203 -87.5491ZM67.1296 -83.4061C97.8588 -65.4696 133.881 -72.108 167.134 -78.2358C170.543 -78.864 173.922 -79.4868 177.264 -80.0773C213.916 -86.5564 256.604 -91.084 285.902 -61.9891C310.753 -37.2508 316.324 1.10144 316.603 34.665C316.65 52.9272 315.388 71.1558 312.826 89.2053C311.861 96.3209 310.51 103.418 309.157 110.523L309.157 110.524C306.832 122.735 304.503 134.969 304.124 147.358C302.772 191.438 319.689 236.854 344.187 272.927C354.966 288.759 367.785 303.57 383.235 314.724C400.203 327.03 420.05 332.365 440.275 335.852C486.692 343.81 535.027 339.772 580.658 329.631C604.297 324.34 627.594 317.625 650.428 309.52C653.416 308.461 656.388 307.384 659.354 306.31L659.356 306.309L659.358 306.308C674.922 300.669 690.304 295.095 706.811 292.571C739.665 287.553 773.516 292.975 802.464 310.31C830.106 326.79 851.441 352.493 865.582 381.532C881.351 413.946 888.072 450.407 887.619 486.273C887.281 506.276 884.747 526.156 880.066 545.543C874.91 567.028 870.481 587.951 870.005 610.24C869.097 653.661 880.073 700.621 910.556 732.91C938.094 762.098 980.385 769.387 1018.21 765.124C1038.33 762.808 1058.44 757.525 1078.16 752.342L1078.34 752.295C1079.45 752.003 1080.56 751.711 1081.67 751.42C1082.2 751.281 1082.73 751.143 1083.26 751.004C1083.79 750.866 1084.32 750.728 1084.84 750.59C1107.15 744.762 1129.52 737.61 1149.44 725.702C1157.33 720.978 1164.49 715.338 1171.64 709.7L1171.64 709.699C1179.96 703.145 1188.28 696.592 1197.73 691.483C1215.58 681.828 1234.83 675.063 1254.77 671.431C1272.95 668.187 1292.71 667.468 1310.39 673.894C1327.02 679.938 1340.54 692.905 1350.36 707.574C1369.49 736.106 1377.61 771.166 1385.35 804.545C1386.11 807.854 1386.88 811.147 1387.65 814.415C1388.27 817.058 1388.89 819.714 1389.51 822.38L1389.51 822.381C1397.28 855.733 1405.4 890.57 1423.82 919.558C1446.38 955.216 1484.36 978.162 1521.66 994.746C1541.97 1003.76 1562.89 1011.23 1583.81 1018.56C1585.3 1019.08 1585.99 1016.71 1584.51 1016.18C1541.63 1001.16 1497.38 985.439 1461.25 956.506C1444.85 943.39 1430.44 927.61 1420.47 908.986C1411.43 892.043 1405.4 873.623 1400.3 855.164C1396.53 841.55 1393.32 827.761 1390.11 813.97C1384.46 789.672 1378.81 765.369 1370.06 742.014C1359.06 712.776 1341.07 682.078 1310.36 671.344C1276.67 659.563 1236.64 670.184 1205.72 684.784C1197.24 688.74 1189.08 693.386 1181.34 698.678C1177.15 701.587 1173.28 704.859 1169.4 708.139C1166.7 710.421 1164 712.707 1161.18 714.876C1140.98 730.447 1116.59 739.333 1092.32 746.1L1090.51 746.605C1048.77 758.257 1003.74 770.823 960.54 759.121C939.531 753.743 920.684 741.711 906.724 724.764C891.625 706.203 882.149 683.595 877.124 660.25C872.158 636.372 871.146 611.854 874.13 587.712C875.503 575.903 878.206 564.429 880.912 552.944L880.913 552.942C883.062 543.82 885.213 534.691 886.7 525.381C892.713 489.633 891.007 452.906 881.7 417.75C865.309 357.623 822.013 303.852 759.828 291.279C725.069 284.234 691.79 291.583 659.285 303.841C614.101 320.79 566.319 333.164 518.073 336.567C493.864 338.48 469.498 337.705 445.403 334.256C423.01 330.839 400.866 325.112 382.45 311.026C348.862 285.351 326.091 243.852 314.499 203.442C307.102 177.637 304.224 150.792 309.467 124.396C312.82 107.515 315.582 90.5097 317.303 73.4258C320.713 39.3684 321.123 2.57152 308.803 -29.9929C297.416 -59.7526 274.204 -80.3213 243.359 -85.9098C217.903 -90.477 192.674 -85.7284 167.514 -80.9929C153.367 -78.3301 139.241 -75.6714 125.11 -74.6755C105.412 -73.2761 85.7419 -75.3609 68.3091 -85.509C66.9412 -86.2863 65.6812 -84.1846 67.0538 -83.388L67.1296 -83.4061ZM162.246 -68.9706C128.982 -63.9339 93.3531 -58.5391 62.8156 -76.3187L62.7731 -76.329C61.4005 -77.1256 62.6795 -79.2318 64.0284 -78.45C81.3664 -68.2792 100.912 -65.8782 120.484 -66.7156C134.295 -67.3379 148.155 -69.4845 162.042 -71.6352C186.914 -75.4872 211.869 -79.3521 236.775 -74.4949C268.137 -68.2527 291.206 -46.6066 302.403 -16.5557C314.603 16.3442 314.291 53.3016 310.993 87.6596C310.004 98.0754 308.313 108.35 306.622 118.62C305.269 126.843 303.916 135.062 302.924 143.35C299.897 168.622 303.977 194.382 311.377 218.611C323.438 258.131 346.305 299.361 380.337 323.457C398.866 336.596 421.491 341.737 443.503 344.653C466.9 347.548 490.503 348.007 513.946 346.024C560.702 342.507 606.771 330.931 651.168 316.216C684.315 305.216 717.111 297.86 752.115 305.174C814.364 318.181 858.04 371.615 874.803 431.96C884.123 466.591 886.082 502.782 880.55 538.104C879.219 546.94 877.388 555.644 875.558 564.343L875.557 564.344C872.94 576.785 870.325 589.215 869.178 602.01C866.809 626.11 868.303 650.479 873.602 674.164C878.95 697.269 888.982 719.518 904.586 737.427C918.558 753.456 937.257 763.792 957.498 768.931C978.602 773.96 1000.44 774.605 1021.72 770.83C1044.93 766.694 1067.86 761.112 1090.38 754.115C1113.52 747.206 1136.55 738.28 1156.21 723.857C1158.91 721.877 1161.52 719.814 1164.14 717.752C1168.73 714.129 1173.32 710.51 1178.31 707.36C1186.35 702.297 1194.77 697.888 1203.5 694.173C1234.35 680.878 1274.07 671.457 1306.71 684.736C1336.6 696.874 1354 727.221 1364.98 756.382C1373.21 778.513 1378.79 801.454 1384.37 824.393C1387.9 838.897 1391.43 853.4 1395.63 867.697C1400.92 885.537 1407.08 903.352 1416.06 919.614C1426.41 938.393 1441.23 954.199 1457.94 967.281C1493.8 995.357 1537.24 1010.8 1579.49 1025.61C1580.97 1026.11 1580.28 1028.5 1578.8 1027.98C1558.22 1020.75 1537.63 1013.43 1517.65 1004.6C1480.58 988.251 1443.24 965.806 1420.08 930.967C1400.9 902.114 1392.32 867.053 1384.13 833.567L1384.13 833.565C1383.84 832.363 1383.54 831.163 1383.25 829.966C1383.02 829.039 1382.8 828.112 1382.57 827.188C1381.79 824.004 1381.02 820.8 1380.24 817.584C1372.28 784.505 1363.98 750.061 1345.27 721.557C1335.62 706.827 1322.33 693.743 1306.02 687.049C1288.82 679.936 1269.28 680.089 1251.31 682.773C1231.52 685.863 1212.34 692.04 1194.44 701.087C1184.3 706.174 1175.37 712.779 1166.43 719.401C1160.03 724.133 1153.63 728.874 1146.76 733.074C1126.64 745.273 1104.12 752.973 1081.57 759.187C1080.52 759.476 1079.47 759.765 1078.42 760.055C1057.76 765.75 1036.51 771.605 1015.26 774.256C978.139 778.925 936.62 772.516 908.434 745.139C877.081 714.572 865.78 667.342 865.679 625.062C865.628 603.593 869.494 582.731 873.365 561.842L873.365 561.841C877.116 541.594 880.873 521.32 881.073 500.441C881.465 464.405 874.347 427.876 858.365 395.41C844.097 366.422 822.614 340.939 794.972 324.458C765.967 307.137 731.962 301.405 699.001 305.978C683.437 308.197 668.772 313.021 653.979 317.888L653.966 317.892L653.948 317.898L653.932 317.903L653.929 317.904C650.436 319.053 646.936 320.204 643.416 321.324C620.683 328.625 597.578 334.788 574.223 339.742C529.726 349.182 482.815 353.391 437.567 346.298C417.987 343.251 398.023 338.434 381.311 327.193C365.503 316.554 352.437 301.965 341.477 286.3C317.086 251.428 300.826 208.085 299.531 165.252C299.081 150.672 301.453 136.467 303.831 122.227L303.831 122.227C304.854 116.098 305.878 109.963 306.679 103.789C309.153 85.6946 310.366 67.4329 310.31 49.14C310 15.3591 304.467 -23.0842 280.34 -48.5682C251.963 -78.4155 209.829 -75.8411 173.028 -70.5741C169.468 -70.0641 165.871 -69.5195 162.246 -68.9706ZM58.5017 -69.2314C88.3677 -51.8174 123.356 -56.0044 158.059 -60.1571C200.155 -65.1945 241.83 -70.1816 273.431 -36.5027C297.787 -10.5622 303.47 28.2545 303.986 62.559C304.129 80.7818 303.049 98.9814 300.753 117.03C300.113 122.296 299.352 127.523 298.592 132.737L298.592 132.737C296.35 148.132 294.125 163.408 295.082 179.225C297.63 222.023 313.774 265.128 338.677 299.714C349.423 314.653 362.304 328.55 377.827 338.418C394.391 349.04 414.233 353.6 433.412 356.396C477.377 362.813 522.816 358.65 566.108 350.03C588.883 345.501 611.451 339.855 633.8 333.546C638.052 332.346 642.282 331.089 646.509 329.833L646.513 329.832L646.516 329.831L646.52 329.83L646.523 329.829C661.228 325.459 675.884 321.104 691.191 319.22C724.505 315.115 758.697 321.294 787.89 338.815C815.616 355.48 837.269 381.086 851.669 410.207C867.614 442.436 874.843 478.673 874.627 514.523C874.375 534.524 872.087 554.424 867.801 573.905C863.213 595.292 861.054 617.168 861.367 639.105C862.189 680.802 873.48 726.48 904.887 755.766C932.815 781.813 973.096 787.988 1009.3 783.642C1031.52 780.989 1053.68 774.644 1075.19 768.488L1075.19 768.488L1076.03 768.247C1098.13 761.915 1120.1 754.183 1140.14 742.677C1147.32 738.555 1154.05 733.867 1160.78 729.184L1160.78 729.183L1160.78 729.182L1160.78 729.18L1160.79 729.179L1160.79 729.178L1160.79 729.177L1160.79 729.177L1160.79 729.176L1160.79 729.175L1160.79 729.175C1170.13 722.674 1179.46 716.183 1189.91 711.232C1207.95 702.588 1227.23 696.871 1247.06 694.285C1265.35 691.954 1285.08 692.594 1302.19 700.568C1317.81 707.836 1330.48 720.678 1339.91 735.135C1358.27 763.329 1366.8 797.116 1375.03 829.689C1375.98 833.45 1376.92 837.194 1377.88 840.911C1378.23 842.289 1378.59 843.67 1378.95 845.053C1387.57 878.496 1396.59 913.505 1416.43 942.152C1440.06 976.183 1476.88 998.119 1513.69 1014.27C1533.37 1022.9 1553.54 1030.12 1573.81 1037.19C1575.32 1037.71 1576.01 1035.34 1574.52 1034.81C1532.96 1020.21 1490.26 1005.06 1454.71 977.831C1438.14 965.146 1423.24 949.768 1412.61 931.549C1403.17 915.395 1396.63 897.527 1391.12 879.596C1386.69 865.185 1382.95 850.554 1379.22 835.921C1373.5 813.543 1367.78 791.161 1359.58 769.56C1348.59 740.36 1331.11 710.359 1301.56 697.527C1269.19 683.466 1229.49 692.044 1198.37 704.79C1181.66 711.634 1167.76 721.298 1153.18 731.429L1152.31 732.034L1151.01 732.936C1130.63 747.02 1107.32 756.178 1083.79 763.342C1042.55 775.93 997.749 788.88 954.481 778.593C934.324 773.802 915.338 763.943 901.179 748.389C885.534 731.144 875.5 709.386 869.926 686.847C864.5 663.634 862.674 639.732 864.515 616.013C865.427 602.295 867.891 588.963 870.361 575.602L870.361 575.6L870.362 575.599L870.362 575.598L870.362 575.596L870.362 575.595C871.762 568.024 873.163 560.443 874.285 552.777C879.724 517.165 877.559 480.705 867.937 445.877C850.715 385.54 806.813 332.753 744.728 319.174C729.07 315.799 713.028 314.811 697.13 316.244C679.417 317.776 662.688 322.672 645.81 327.611C644.828 327.898 643.846 328.186 642.863 328.473C598.74 341.403 553.596 352.328 507.626 355.78C484.883 357.683 461.993 357.344 439.273 354.768C417.746 352.125 395.214 347.289 376.852 334.929C343.38 312.253 320.659 272.052 308.369 233.834C300.456 209.135 295.711 182.777 297.801 156.768C298.579 147.151 300.028 137.621 301.478 128.09C302.859 119.014 304.239 109.937 305.039 100.785C308.039 66.3554 308.014 29.499 295.952 -3.41335C284.7 -33.7783 262.022 -55.8861 230.781 -62.8735C206.291 -68.337 181.528 -65.322 156.84 -62.3162C143.128 -60.6468 129.44 -58.9802 115.834 -58.7706C96.355 -58.4668 76.9587 -61.3331 59.7617 -71.333C58.4081 -72.1342 57.1292 -70.028 58.5017 -69.2314ZM152.171 -50.87C117.922 -48.0007 83.3853 -45.1072 54.1878 -62.1441L54.2211 -62.1725C52.8485 -62.9692 54.1275 -65.0754 55.5 -64.2787C72.5648 -54.3289 91.7935 -51.0748 111.175 -50.8644C124.423 -50.715 137.801 -51.8971 151.202 -53.0812C176.206 -55.2905 201.291 -57.5071 225.766 -51.0976C256.84 -43.0475 278.78 -19.9244 289.617 10.2127C301.611 43.5915 301.695 80.7814 298.811 115.613C298.153 123.509 297.076 131.381 295.999 139.251C294.383 151.063 292.768 162.871 292.569 174.753C292.187 199.944 297.197 225.236 305.314 249.028C318.165 286.661 341.109 326.789 375.669 347.649C394.094 358.766 416.502 362.917 437.473 365.079C459.223 367.123 481.089 367.202 502.817 365.318C548.148 361.468 592.964 353.135 636.631 340.437C640.302 339.411 643.946 338.344 647.579 337.28L647.58 337.28L647.58 337.28L647.581 337.28L647.581 337.28L647.582 337.28L647.582 337.279C661.584 333.179 675.434 329.122 690.139 327.634C705.546 326.04 721.123 326.837 736.34 329.998C797.557 342.966 841.002 395.515 859.401 454.24C869.765 488.008 873.116 523.541 869.24 558.566C868.248 568.038 866.698 577.401 865.147 586.762C863.246 598.242 861.344 609.72 860.475 621.398C858.43 644.986 859.765 668.785 864.439 692.047C869.284 714.637 878.414 736.55 893.266 754.333C906.849 770.219 924.831 781.546 944.806 786.799C987.956 798.853 1032.26 786.576 1073.63 773.956C1097.28 766.741 1120.62 757.781 1141.76 744.745C1145.61 742.359 1149.37 739.931 1153.1 737.519C1165.02 729.828 1176.68 722.297 1190.14 716.802C1221.46 703.948 1260.87 695.766 1293.58 709.195C1323.74 721.574 1341.97 751.437 1353.56 780.882C1362.01 802.356 1367.97 824.644 1373.92 846.931L1373.92 846.932L1373.92 846.933L1373.92 846.934L1373.92 846.935L1373.92 846.936L1373.92 846.937L1373.92 846.945L1373.93 846.952L1373.93 846.959L1373.93 846.966L1373.93 846.973L1373.93 846.98C1377.69 861.037 1381.44 875.093 1385.83 888.944C1391.45 906.765 1398.12 924.481 1407.57 940.63C1418.47 958.642 1432.69 974.347 1449.44 986.865C1485.09 1014.3 1527.99 1029.62 1569.71 1044.19C1571.2 1044.71 1570.51 1047.09 1569.02 1046.56C1548.53 1039.38 1528.07 1032.08 1508.17 1023.32C1471.51 1007.18 1435.07 985.251 1411.55 951.399C1391.7 922.838 1382.35 887.951 1373.41 854.583L1373.27 854.073L1373.15 853.621L1372.68 851.837L1372.17 849.949C1371.27 846.595 1370.37 843.219 1369.47 839.829C1360.86 807.365 1351.92 773.647 1332.89 745.897C1322.83 731.224 1309.3 718.383 1292.88 711.57C1275.67 704.438 1256.22 704.101 1238.08 706.396C1218.54 709.047 1199.53 714.698 1181.71 723.157C1171.82 727.83 1162.76 733.784 1153.69 739.749C1146.11 744.735 1138.51 749.728 1130.41 753.986C1109.57 764.945 1087.15 772.685 1064.64 779.112L1063.47 779.447C1043.11 785.243 1022.24 791.186 1001.14 793.327C964.661 797.022 924.258 789.752 897.213 762.287C867.165 731.735 857.293 686.208 857.122 644.641C857.041 624.741 859.856 605.221 862.669 585.711C865.732 564.47 868.794 543.24 868.113 521.544C867.268 485.795 858.404 450.64 842.2 418.773C827.413 390.379 805.852 365.324 778.455 349.03C749.652 332.253 716.221 325.835 683.589 330.817C670.553 332.689 657.995 336.485 645.425 340.285L645.424 340.286C639.451 342.092 633.476 343.898 627.445 345.499C604.918 351.483 582.07 356.377 559.113 360.398C516.983 367.758 473.434 372.287 430.704 366.76C412.346 364.382 393.248 360.421 376.786 351.146C360.323 341.87 346.728 327.838 335.515 312.621C310.696 278.521 295.328 238.305 291.038 196.23C289.121 177.677 291.303 159.876 293.532 141.692C293.922 138.511 294.314 135.318 294.685 132.106C296.905 113.801 297.919 95.3521 297.718 76.8849C297.136 42.5552 291.537 4.00494 268.117 -22.7119C237.209 -57.9944 194.914 -54.451 152.171 -50.87ZM49.8739 -55.0567C78.5141 -38.3315 112.442 -40.0145 146.1 -41.684C188.656 -43.7949 230.78 -45.8844 261.232 -10.7135C284.824 16.5554 290.7 55.5099 291.454 90.4735C291.782 108.894 290.921 127.304 288.876 145.586C288.769 146.602 288.663 147.615 288.556 148.626C286.403 169.083 284.328 188.803 286.762 209.507C291.604 250.754 307.075 292.138 332.114 325.28C343.296 340.115 356.94 353.685 373.354 362.338C389.768 370.991 409.15 374.802 427.486 376.92C468.687 381.667 510.381 377.254 550.97 370.57C573.676 366.841 596.241 362.355 618.665 357.112C624.67 355.676 630.633 354.064 636.595 352.452C649.448 348.978 662.301 345.504 675.574 343.782C708.168 339.284 741.412 345.841 770.186 362.444C797.976 378.787 819.957 403.926 835.041 432.555C851.343 463.947 860.528 498.611 861.912 533.972C862.921 555.778 860.244 577.237 857.564 598.714L857.564 598.715C855.141 618.126 852.717 637.553 853.011 657.264C853.614 698.462 863.268 743.325 893.76 772.973C920.797 799.233 960.416 806.241 996.263 802.593C1017.78 800.431 1039.1 794.246 1059.8 788.086C1082.79 781.56 1105.12 772.849 1126.47 762.067C1133.9 758.211 1141 753.844 1148.08 749.481C1158.08 743.324 1168.07 737.177 1178.95 732.49C1197.24 724.486 1216.67 719.444 1236.54 717.545C1255.01 715.949 1274.59 717.502 1291.5 726.139C1306.91 734.03 1319.42 746.788 1328.94 761.285C1346.83 788.537 1355.79 820.863 1364.48 852.242C1365.53 856.017 1366.57 859.778 1367.62 863.515L1368.3 865.938C1377.7 899.348 1387.55 934.361 1408.13 962.712C1432.28 996.024 1468.61 1017.5 1505.34 1033.45C1524.6 1041.83 1544.35 1048.87 1564.14 1055.79C1565.62 1056.31 1566.32 1053.94 1564.83 1053.42C1523.77 1039.04 1481.67 1024.03 1446.33 997.45C1429.51 985.143 1415.11 969.713 1403.9 951.983C1394.26 936.226 1387.39 918.907 1381.54 901.405C1376.75 887.07 1372.69 872.487 1368.62 857.908L1368.62 857.905C1362.8 837.055 1356.99 816.211 1349.09 796.107C1337.46 766.445 1319.78 736.576 1290.15 722.74C1257.83 707.663 1218.03 714.813 1186.21 726.908C1171.89 732.335 1159.34 739.929 1146.49 747.703C1143.44 749.55 1140.38 751.406 1137.26 753.246C1115.87 765.893 1092.66 775.149 1069.06 782.658C1028.01 795.713 983.882 807.949 940.863 796.273C921.224 791.296 903.436 780.473 889.775 765.192C874.702 747.83 865.434 726.175 860.475 703.776C855.387 680.753 854.56 656.955 855.965 633.524C856.666 621.63 858.336 609.899 860.005 598.171L860.005 598.171L860.006 598.168C861.277 589.233 862.549 580.301 863.392 571.298C866.841 536.068 863.034 500.423 852.211 466.639C833.012 408.002 788.958 356.254 727.741 343.205C712.493 340.013 696.886 339.149 681.433 340.641C667.456 341.941 654.062 345.483 640.603 349.041L640.597 349.043C636.414 350.149 632.225 351.256 628.011 352.299C585.329 362.88 541.47 371.39 497.558 374.902C476.105 376.81 454.515 376.85 433.021 375.022C412.523 373.075 390.553 369.249 372.246 358.88C337.463 339.096 314.622 299.23 301.607 262.087C293.128 238.467 288.49 213.629 287.88 188.558C287.698 175.795 289.187 163.161 290.677 150.529L290.677 150.528L290.677 150.528L290.677 150.527L290.677 150.527L290.677 150.526L290.677 150.525L290.677 150.525C291.567 142.981 292.457 135.438 292.99 127.868C295.447 93.1797 294.977 56.3889 283.11 23.2048C272.293 -7.10064 250.663 -30.6866 219.812 -39.6491C195.6 -46.7114 170.518 -45.3174 145.525 -43.9282L145.525 -43.9282C132.458 -43.202 119.416 -42.4771 106.535 -42.9626C87.2509 -43.6872 68.1847 -47.2667 51.2286 -57.181C49.856 -57.9777 48.5771 -55.8715 49.9497 -55.0749L49.8739 -55.0567ZM140.087 -32.6217C107.055 -32.1045 73.7667 -31.5833 45.6737 -47.9967C44.32 -48.7979 45.58 -50.8995 46.9526 -50.1028C63.8005 -40.3058 82.7037 -36.3191 101.867 -35.0951C114.353 -34.302 127.01 -34.5849 139.694 -34.8685C164.414 -35.4211 189.239 -35.976 213.107 -28.5734C243.874 -18.9568 265.46 4.94665 276.48 35.3467C288.367 68.2805 289.293 104.717 287.319 139.249C286.9 146.616 286.174 153.964 285.448 161.31L285.448 161.311C284.161 174.334 282.875 187.354 283.299 200.475C284.253 224.662 288.772 248.599 296.704 271.483C309.284 308.486 331.341 348.089 365.649 368.232C382.987 378.403 403.598 382.411 423.188 384.494C444.081 386.5 465.087 386.675 485.975 385.017C525.138 382.303 563.545 374.458 601.916 366.621C605.403 365.909 608.89 365.196 612.377 364.488C647.485 357.335 681.766 351.076 717.496 358.993C779.296 372.722 825.543 422.166 845.862 481.966C856.986 515.79 860.945 551.57 857.476 586.931C856.784 594.527 855.902 602.085 855.021 609.638C853.405 623.48 851.792 637.305 851.349 651.321C850.568 673.928 851.877 696.812 857.311 718.852C862.667 740.564 872.398 761.474 887.778 777.779C901.761 792.599 920.22 801.929 939.659 806.564C982.714 816.882 1026.65 804.324 1067.27 790.512C1090.83 782.78 1113.57 772.735 1135.18 760.516C1151.07 751.353 1166.43 742.543 1183.86 736.593C1215.75 725.69 1254.87 720.217 1286.28 736.389C1315.5 751.428 1332.82 781.302 1344.51 811.235C1351.88 830.072 1357.55 849.468 1363.22 868.868L1363.22 868.873C1367.68 884.149 1372.15 899.426 1377.44 914.434C1383.53 931.674 1390.74 948.729 1400.69 964.104C1412.32 981.483 1426.98 996.553 1443.94 1008.56C1478.85 1034 1519.75 1048.62 1559.83 1062.65C1561.32 1063.18 1560.62 1065.55 1559.13 1065.03C1539.7 1058.22 1520.29 1051.31 1501.37 1043.13C1464.84 1027.37 1428.77 1006.28 1404.29 973.552C1383.59 945.671 1373.2 911.194 1363.44 878.181C1362.13 873.747 1360.84 869.281 1359.55 864.801L1359.54 864.797C1350.74 834.299 1341.73 803.109 1324.7 776.311C1315.75 761.645 1303.48 749.362 1288.93 740.501C1272.44 730.883 1253.12 728.163 1234.45 728.989C1214.77 730.087 1195.41 734.333 1177.08 741.571C1164.75 746.31 1153.46 752.792 1142.14 759.295C1135.84 762.911 1129.54 766.534 1123.03 769.867C1102.09 780.419 1080.32 789.194 1057.93 796.101C1036.63 802.856 1014.64 809.406 992.354 811.793C957.467 815.518 919.107 809.416 891.809 785.079C860.913 757.43 850.501 713.915 848.922 673.831C848.141 653.229 850.273 632.916 852.401 612.634C854.579 591.882 856.753 571.163 855.8 550.204C854.248 515.001 845.504 479.802 828.607 448.783C812.773 419.698 789.707 394.717 761.099 378.467C731.571 361.64 697.465 355.318 664.073 358.091C647.633 359.472 631.314 362.944 615.102 366.393L615.101 366.393C610.922 367.282 606.749 368.17 602.584 369.02C601.256 369.29 599.927 369.561 598.599 369.832C578.186 373.99 557.745 378.154 537.178 381.5C498.02 387.883 457.338 391.419 417.723 386.354C400.07 384.073 381.791 380.101 366.04 371.289C350.289 362.477 337.207 349.161 326.454 334.612C302.317 301.97 287.672 261.616 282.594 221.387C279.726 198.68 281.528 175.972 283.333 153.229C284.684 136.197 286.038 119.146 285.432 102.061C284.243 67.1194 277.836 28.5376 254.442 1.18014C224.423 -33.9421 182.466 -33.2852 140.087 -32.6217ZM41.4166 -40.9229C68.9757 -24.7984 101.585 -24.2116 133.955 -23.6291C176.14 -22.8699 217.918 -22.1181 247.577 13.0102C271.002 40.7489 277.773 79.4277 279.372 114.741C280.141 131.72 279.122 148.629 278.103 165.517C276.687 189.01 275.272 212.463 278.68 236.009C284.356 275.215 298.603 314.581 322.433 346.355C333.154 360.686 346.276 373.666 362.033 382.087C377.791 390.509 395.121 394.115 412.274 396.229C450.58 400.933 489.865 397.588 527.791 391.745C543.589 389.311 559.344 386.159 575.112 383.005L575.114 383.004C600.786 377.868 626.496 372.725 652.497 370.66C686.759 367.841 721.721 374.307 752.128 391.292C780.52 407.489 804.098 431.247 820.312 459.993C837.916 490.7 847.455 525.709 849.764 560.976C851.187 582.61 849.303 604.095 847.418 625.597L847.418 625.598L847.418 625.599L847.418 625.6L847.418 625.601L847.418 625.601L847.418 625.602L847.418 625.603L847.418 625.604L847.418 625.604L847.418 625.605C845.711 645.074 844.003 664.557 844.747 684.178C846.317 724.224 856.322 767.714 887.66 795.032C914.664 818.559 952.112 824.614 986.372 821.203C1008.43 818.952 1030.07 812.526 1051.08 805.719C1073.37 798.557 1095.11 789.792 1116.16 779.489C1122.37 776.435 1128.44 773.164 1134.51 769.897C1146.72 763.319 1158.89 756.761 1172.07 752.036C1190.08 745.384 1209.01 741.593 1228.2 740.795C1246.9 740.248 1266.09 743.285 1282.55 752.931C1297.37 761.942 1309.9 774.408 1319.09 789.293C1336.05 815.774 1345.3 846.477 1354.37 876.569L1354.37 876.575L1354.37 876.581L1354.37 876.587L1354.38 876.593L1354.38 876.599L1354.38 876.605L1354.38 876.61C1355.74 881.135 1357.1 885.646 1358.48 890.126C1368.59 922.831 1379.42 956.857 1400.48 984.262C1425.26 1016.5 1461.08 1037.27 1497.51 1052.89C1516.13 1060.87 1535.11 1067.69 1554.25 1074.36C1555.76 1074.88 1556.43 1072.49 1554.95 1071.98C1515.58 1058.16 1475.34 1043.84 1440.89 1019.25C1423.58 1007.24 1408.57 992.114 1396.59 974.617C1386.91 959.525 1379 943.338 1373.03 926.392C1367.35 911.096 1362.6 895.464 1357.84 879.828L1357.84 879.826C1352.09 860.895 1346.33 841.958 1338.92 823.599C1326.95 793.735 1309.52 764.356 1280.56 749.007C1249.24 732.384 1210.35 736.945 1178 747.325C1160.45 752.955 1144.77 761.413 1128.62 770.187C1106.35 782.09 1083.17 792.165 1059.3 800.315C1019.25 814.093 976.185 826.013 933.751 815.526C914.998 810.911 897.209 801.871 883.549 787.731C867.856 771.459 858.116 750.347 852.857 728.449C844.303 692.701 847.266 657.124 850.248 621.327L850.248 621.326L850.248 621.322L850.249 621.318L850.249 621.314L850.249 621.31L850.249 621.305L850.25 621.301L850.25 621.297L850.25 621.293L850.251 621.288C850.923 613.213 851.597 605.127 852.139 597.025C854.736 561.901 850.03 526.544 838.328 493.261C816.713 433.484 769.253 385.251 707.22 371.64C671.665 363.782 636.905 369.461 601.781 375.881C595.306 377.064 588.834 378.274 582.364 379.485L582.353 379.487L582.342 379.489L582.332 379.491L582.321 379.493L582.31 379.495L582.3 379.497L582.289 379.499L582.279 379.501L582.268 379.503C547.957 385.92 513.655 392.336 478.738 394.706C458.418 396.285 437.988 396.144 417.658 394.286C398.607 392.36 378.634 388.589 361.628 379.054C327.655 359.977 306.004 321.483 293.315 285.448C285.222 262.585 280.381 238.688 278.94 214.488C278.152 200.479 279.222 186.629 280.296 172.724C280.816 165.994 281.337 159.251 281.648 152.47C283.224 117.195 281.924 79.9482 269.382 46.4551C257.941 15.9716 236.138 -8.00263 205.226 -17.9733C182.151 -25.3964 158.048 -25.6576 134.006 -25.918L134.006 -25.918C121.459 -26.054 108.929 -26.1897 96.5707 -27.3429C77.7409 -29.0969 59.2555 -33.3472 42.7196 -43.0962C41.347 -43.8928 40.087 -41.7912 41.4596 -40.9945L41.4166 -40.9229ZM127.758 -14.7334C96.0693 -16.3729 64.1565 -18.024 37.1406 -33.8446L37.1595 -33.8492C35.787 -34.6458 37.0659 -36.752 38.4195 -35.9508C54.8708 -26.3043 73.208 -21.7527 91.884 -19.5527C103.758 -18.1441 115.825 -17.6233 127.913 -17.1017C152.072 -16.0591 176.311 -15.0131 199.249 -6.86732C230.473 4.23584 251.963 29.2463 263.396 60.284C275.696 93.7735 277.386 130.722 276.109 165.988C275.897 171.845 275.568 177.679 275.24 183.504L275.24 183.505L275.24 183.506L275.24 183.507L275.24 183.508L275.24 183.509L275.24 183.51L275.24 183.51L275.24 183.511L275.24 183.512L275.239 183.513C274.386 198.662 273.536 213.753 274.747 229.033C276.602 252.47 281.525 275.578 289.385 297.741C301.971 333.597 323.663 371.672 357.503 389.861C391.343 408.05 434.614 406.962 471.548 404.507C503.653 402.358 535.24 396.832 566.837 391.304L566.853 391.302L566.869 391.299C575.099 389.859 583.33 388.419 591.57 387.039C627.051 381.106 662.345 376.404 697.956 384.412C760.474 398.459 809.165 446.398 831.601 506.674C843.669 539.829 848.812 575.127 846.7 610.293C846.279 618.145 845.737 626.011 845.194 633.883L845.194 633.884L845.194 633.885L845.194 633.886L845.194 633.887L845.193 633.888L845.193 633.889L845.193 633.89L845.193 633.891L845.193 633.892L845.193 633.893C842.709 669.895 840.218 706.024 849.259 741.543C854.743 763.039 864.811 783.684 880.783 799.194C894.612 812.618 912.338 821.059 930.804 825.314C972.973 835.026 1015.54 823.122 1055.1 808.951C1078.89 800.346 1102.12 790.237 1124.66 778.682C1141.07 770.317 1157.26 762.474 1175.01 757.387C1207.59 748.037 1245.91 745.087 1276.67 762.684C1304.79 778.744 1321.93 807.679 1333.97 837.222C1341.08 854.668 1346.79 872.622 1352.49 890.575C1357.82 907.335 1363.15 924.096 1369.62 940.443C1375.7 956.541 1383.59 971.877 1393.14 986.141C1405.37 1003.27 1420.49 1018.06 1437.77 1029.83C1471.85 1053.65 1511.32 1067.71 1550.04 1081.28C1551.53 1081.8 1550.84 1084.18 1549.35 1083.65C1530.21 1077 1511.23 1070.19 1492.61 1062.21C1457.01 1046.94 1422.17 1026.78 1397.39 995.883C1376.02 969.207 1364.6 936.039 1354.17 903.759C1352.54 898.702 1350.93 893.607 1349.33 888.497C1340.18 859.455 1330.89 829.932 1314.77 804.217C1305.8 789.319 1293.67 776.643 1279.27 767.134C1263.02 756.806 1244.16 752.666 1225.25 752.506C1206 752.617 1186.9 755.804 1168.68 761.952C1153.91 766.689 1140.23 773.583 1126.48 780.512L1126.47 780.519L1126.45 780.526C1121.53 783.005 1116.61 785.489 1111.62 787.879C1090.14 798.232 1068.05 807.247 1045.48 814.874C1025.04 821.728 1003.96 828.042 982.469 830.34C948.581 833.969 911.453 828.329 884.255 805.584C853.02 779.448 842.676 737.39 840.743 698.167C839.762 678.519 841.135 658.954 842.506 639.402L842.506 639.401C844.022 617.796 845.536 596.206 843.874 574.537C841.403 538.71 830.765 503.886 812.807 472.836C796.068 444.111 772.1 420.426 743.412 404.26C712.825 387.359 678.011 380.593 643.596 382.691C616.637 384.348 589.959 389.285 563.316 394.216L563.315 394.216L563.313 394.217L563.311 394.217L563.308 394.217L563.306 394.218L563.304 394.218L563.301 394.218L563.299 394.219L563.297 394.219L563.295 394.219L563.292 394.22C548.444 396.968 533.608 399.714 518.739 401.889C481.979 407.33 443.93 410.563 406.819 406.167C390.129 404.147 373.3 400.707 357.941 392.865C342.583 385.023 329.665 372.731 319.097 359.038C295.141 327.99 281.037 289.142 274.852 250.569C270.962 226.353 271.958 202.254 272.956 178.105C273.638 161.609 274.321 145.09 273.447 128.494C271.562 92.7375 264.527 53.8764 241.305 25.4757C211.982 -10.3757 170.07 -12.5442 127.758 -14.7334ZM32.8645 -26.7664C59.4341 -11.1635 90.6339 -8.51943 121.609 -5.89445C163.863 -2.31358 205.698 1.23178 234.788 37.5903C257.97 66.5737 265.368 105.696 267.596 141.882C268.619 160.225 268.575 178.603 267.464 196.92C266.041 219.853 267.274 242.903 271.136 265.593C277.751 303.369 291.786 341.598 315.799 371.712C326.638 385.279 339.927 397.196 355.686 404.451C370.68 411.357 387.179 414.508 403.431 416.204C439.471 419.976 476.191 416.795 511.894 411.709C525.616 409.792 539.319 407.395 553.034 404.997C580.396 400.212 607.809 395.418 635.521 394.401C704.483 391.932 769.216 425.702 805.707 486.113C823.566 516.187 834.555 549.922 837.854 584.794C840.188 607.624 838.965 630.456 837.742 653.303C836.733 672.141 835.724 690.988 836.708 709.852C838.766 748.676 848.958 789.932 880.163 815.523C907 837.515 943.338 843.119 976.605 839.741C1021.57 835.118 1065.32 815.67 1105.93 796.849C1109.76 795.074 1113.57 793.264 1117.37 791.456C1132.25 784.384 1147.07 777.341 1162.9 772.56C1181.38 766.719 1200.69 763.928 1220.1 764.294C1257.92 765.472 1288.96 784.925 1309.34 817.196C1325.34 842.495 1334.81 871.328 1344.16 899.781L1344.16 899.782L1344.17 899.802L1344.18 899.831C1345.92 905.134 1347.66 910.423 1349.43 915.674C1360.37 948.078 1372.52 981.276 1394.64 1007.75C1419.57 1037.59 1453.83 1057 1488.79 1071.92C1507.1 1079.81 1525.78 1086.37 1544.5 1092.93C1545.98 1093.46 1546.68 1091.08 1545.19 1090.56C1507.11 1077.17 1468.42 1063.41 1434.74 1040.36C1417.69 1028.97 1402.65 1014.71 1390.27 998.2C1380.06 983.773 1371.61 968.138 1365.11 951.648C1358.34 935.223 1352.75 918.362 1347.17 901.502C1341.5 884.382 1335.83 867.263 1328.91 850.602C1316.56 820.828 1299.28 791.987 1271.1 775.493C1240.67 757.674 1203.13 759.334 1170.31 767.881C1152.02 772.646 1135.21 780.249 1118.14 788.363C1095.66 799.042 1072.97 809.399 1049.61 817.978C1010.3 832.557 967.943 844.31 925.892 834.59C907.751 830.442 890.365 822.328 876.619 809.252C860.65 794.09 850.561 773.777 845.147 752.489C836.494 718.574 838.366 683.811 840.226 649.252C840.722 640.041 841.217 630.844 841.512 621.681C842.838 587.052 837.189 552.447 824.913 519.995C801.695 459.968 752.83 412.644 690.692 397.503C655.08 388.821 619.323 392.263 583.609 397.72C573.221 399.306 562.855 401.022 552.492 402.738L552.487 402.738L552.482 402.739L552.477 402.74L552.472 402.741L552.467 402.742L552.463 402.742L552.458 402.743L552.453 402.744L552.448 402.745L552.443 402.746L552.438 402.746C523.93 407.466 495.437 412.184 466.534 414.196C430.13 416.77 388.121 418.026 354.34 401.173C320.017 383.979 298.545 346.486 285.78 311.307C277.897 289.485 272.792 266.746 270.593 243.651C268.959 226.971 269.557 210.507 270.16 193.937C270.34 188.963 270.521 183.979 270.643 178.976C271.505 143.401 269.286 106.333 256.812 72.6194C245.485 42.0267 224.611 16.9098 194.312 4.64461C171.071 -4.70001 146.235 -6.58583 121.507 -8.46351C110.364 -9.30959 99.2428 -10.154 88.2993 -11.6785C69.4031 -14.2963 50.8684 -19.087 34.1056 -28.8635C32.752 -29.6647 31.473 -27.5586 32.8456 -26.7619L32.8645 -26.7664ZM115.418 2.87079C85.1688 -0.744383 54.6833 -4.38783 28.5885 -19.6881L28.5317 -19.6745C27.1591 -20.4712 28.438 -22.5774 29.7917 -21.7762C46.4602 -12.0589 64.8471 -7.04865 83.6034 -3.92696C93.8788 -2.2433 104.325 -1.11436 114.795 0.0171115L114.795 0.0171734L114.796 0.0171922L114.796 0.0172164L114.796 0.0172406L114.796 0.0172647L114.796 0.0172889L114.797 0.0173131L114.797 0.0173372L114.797 0.0173614L114.797 0.0173856L114.797 0.0174097C140.209 2.76363 165.759 5.5248 189.34 16.267C219.651 29.8386 240.111 56.4867 251.273 87.7323C263.514 121.891 265.883 159.168 265.269 195.114C265.241 196.805 265.212 198.494 265.183 200.18L265.183 200.202C264.808 221.957 264.439 243.351 267.425 265.07C270.297 286.842 275.732 308.207 283.612 328.703C297.123 363.314 319.449 399.355 354.851 413.938C388.402 427.737 427.785 426.312 463.05 423.662C488.803 421.723 514.235 417.682 539.676 413.639L539.677 413.639L539.686 413.638C551.955 411.688 564.228 409.738 576.539 408.023C611.834 403.076 647.2 401.016 682.186 410.012C744.14 425.974 793.592 472.401 817.927 532.243C830.552 563.963 836.829 597.881 836.386 631.99C836.317 643.08 835.877 654.23 835.435 665.396L835.435 665.397C834.156 697.774 832.87 730.289 840.627 761.896C845.764 782.862 855.372 802.84 870.996 817.901C884.571 831.099 901.918 839.468 920.02 843.789C961.025 853.575 1002.28 842.904 1040.67 828.504C1061.45 820.703 1081.71 811.586 1101.95 802.472L1101.95 802.471C1104.42 801.359 1106.89 800.247 1109.36 799.138C1126.93 791.272 1144.43 783.771 1163.16 779.166C1197.06 770.747 1235.35 770.014 1266.4 788.932C1293.96 805.72 1311.15 834.15 1323.65 863.44C1330.55 879.604 1336.28 896.217 1342.02 912.828L1342.02 912.831L1342.02 912.833L1342.02 912.835L1342.02 912.838L1342.02 912.84L1342.03 912.843L1342.03 912.845L1342.03 912.847L1342.03 912.85L1342.03 912.852L1342.03 912.855L1342.03 912.857C1347.9 929.864 1353.78 946.871 1360.89 963.398C1376.35 999.118 1398.54 1028.63 1430.7 1050.43C1464.19 1073.1 1502.52 1086.7 1540.22 1099.91C1541.7 1100.43 1541.03 1102.81 1539.52 1102.29C1521.16 1095.86 1502.83 1089.32 1484.86 1081.73C1450.2 1067.04 1416.16 1048.02 1391.14 1018.82C1368.63 992.64 1355.93 959.737 1344.56 927.437C1342.64 922.005 1340.76 916.531 1338.88 911.043L1338.88 911.028L1338.88 911.027C1329.3 883.064 1319.6 854.764 1303.61 829.901C1283.02 797.843 1251.88 778.066 1214.14 776.152C1171.55 773.987 1133.67 790.906 1095.68 807.915C1094.6 808.397 1093.53 808.881 1092.45 809.365L1091.16 809.945L1091.08 809.978L1091.08 809.979C1053.02 827.085 1013.11 845.027 971.319 849.127C938.152 852.42 901.974 846.818 875.208 824.871C844.305 799.535 834.525 758.917 832.55 720.522C831.633 702.797 832.317 685.067 833.002 667.344L833.002 667.343L833.002 667.342L833.002 667.341L833.002 667.34L833.002 667.339L833.002 667.338L833.002 667.337L833.001 667.336L833.001 667.335L833.001 667.335L833.001 667.334L833.001 667.333C833.929 643.299 834.856 619.275 831.791 595.286C827.647 560.951 816.107 527.904 797.997 498.513C760.372 438.639 695.412 405.006 626.348 405.965C597.901 406.294 569.75 411.04 541.674 415.773C529.765 417.781 517.87 419.787 505.972 421.452C471.486 426.267 436.091 429.459 401.315 426.447C385.076 425.055 368.531 422.304 353.35 415.954C338.414 409.405 325.138 399.432 314.566 386.818C289.91 358.371 275.619 321.001 268.189 284.341C263.599 261.38 261.584 237.986 262.182 214.611C262.208 213.563 262.234 212.516 262.26 211.469L262.261 211.44L262.262 211.412L262.262 211.411C262.708 193.597 263.153 175.859 262.024 158.026C259.689 121.395 252.376 82.2931 230.189 52.1921C201.432 13.1507 158.667 8.03967 115.418 2.87079ZM24.3125 -12.6098C50.2698 2.62631 79.765 6.81642 108.912 10.9571L108.913 10.9572L108.914 10.9573L108.914 10.9574L108.915 10.9575L108.916 10.9576L108.916 10.9577L108.917 10.9578L108.918 10.9579L108.918 10.958L108.919 10.9581L108.921 10.9584C114.577 11.7619 120.221 12.5636 125.822 13.4438C163.081 19.2978 198.915 30.9139 222.682 62.8461C255.435 106.849 256.455 159.989 257.471 212.919C258.023 241.718 258.575 270.454 264.236 297.622C271.698 333.497 285.713 370.217 310.056 397.941C320.502 410.218 333.574 419.889 348.248 426.196C363.293 432.395 379.692 435.038 395.742 436.311C429.881 439.086 464.372 435.968 498.156 431.402C509.349 429.875 520.544 428.047 531.754 426.218C560.392 421.543 589.123 416.853 618.138 417.114C686.536 417.727 751.505 451.562 789.847 509.996C808.487 538.879 820.745 571.503 825.762 605.586C829.666 630.906 829.044 656.36 828.421 681.822C828.03 697.804 827.638 713.789 828.367 729.747C830.134 768.191 839.247 808.703 870.282 834.089C896.747 855.782 932.521 861.541 965.343 858.392C1003.6 854.785 1038.85 838.945 1074.03 823.141C1116.69 803.974 1159.23 784.862 1206.85 787.696C1244.84 790 1276.58 809.877 1297.65 842.005C1313.86 866.689 1323.91 894.836 1333.85 922.666L1333.85 922.672L1333.85 922.678L1333.85 922.684L1333.86 922.691L1333.86 922.697C1335.84 928.243 1337.81 933.776 1339.83 939.266C1351.63 971.341 1364.87 1003.81 1387.68 1029.65C1412.86 1058.19 1446.63 1076.91 1480.99 1091.32C1498.6 1098.72 1516.59 1105.14 1534.6 1111.44C1536.09 1111.97 1536.78 1109.59 1535.3 1109.07C1497.93 1096.08 1459.93 1082.53 1426.68 1060.17C1394.39 1038.52 1371.87 1009.13 1356.05 973.538C1349.4 958.591 1343.69 942.298 1337.88 925.733L1337.88 925.731C1320.97 877.486 1303.25 826.939 1259.23 800.651C1228.12 782.094 1190.33 782.218 1156.29 789.994C1128.35 796.372 1102.1 808.184 1075.9 819.975L1075.9 819.976L1075.9 819.978C1062.08 826.196 1048.27 832.409 1034.24 837.815C996.4 852.393 955.589 862.587 915.076 852.93C896.955 848.613 879.626 840.24 866.032 827.046C850.631 812.075 841.111 792.301 836.168 771.473C829.082 741.86 829.959 711.463 830.832 681.192C831.218 667.812 831.603 654.457 831.3 641.205C830.721 607.642 823.7 574.457 810.63 543.522C784.983 483.973 734.594 438.569 672.704 422.039C622.973 408.768 572.764 416.73 522.723 424.665C500.416 428.203 478.142 431.735 455.959 433.378C421.518 435.953 383.46 437.307 350.547 424.419C315.029 410.518 292.729 374.839 279.294 340.291C271.609 320.267 266.237 299.419 263.287 278.17C259.942 255.051 259.978 232.074 260.014 208.819L260.017 206.987C260.101 171.005 257.163 133.864 244.772 99.7413C233.079 67.6202 212.07 40.183 181.001 25.7903C158.149 15.2627 133.387 11.8253 108.717 8.40079L108.717 8.40075C97.9255 6.90275 87.1519 5.40721 76.5636 3.32173C58.7791 -0.175701 41.3733 -5.523 25.5914 -14.716C24.2189 -15.5127 22.94 -13.4065 24.3125 -12.6098ZM20.0365 -5.53162C45.2366 9.26874 73.653 14.1644 101.884 19.0282L101.886 19.0284C108.67 20.1972 115.444 21.3642 122.159 22.6664C159.454 29.9234 194.305 43.7996 217.265 76.2931C248.658 120.929 250.515 173.469 252.371 225.986C253.388 254.741 254.404 283.488 260.268 310.927C267.841 346.346 281.73 382.789 306.242 409.879C328.961 435.005 358.739 443.836 391.181 446.219C424.664 448.681 458.417 445.575 491.557 441.164C502.011 439.764 512.482 438.101 522.973 436.434L522.974 436.434C551.442 431.912 580.061 427.365 608.903 427.998C677.103 429.455 743.144 464.589 782.139 522.069C800.922 550.092 813.704 581.795 819.642 615.09C824.646 642.249 824.326 669.514 824.005 696.817C823.839 710.878 823.674 724.948 824.236 739.02C825.794 777.514 834.283 817.93 865.36 843.408C891.576 864.895 926.895 870.763 959.379 867.961C997.274 864.591 1032.07 849.162 1066.8 833.766C1109.36 814.893 1151.82 796.069 1199.73 799.566C1238.08 802.356 1270.4 822.566 1291.95 854.845C1308.15 879.108 1318.45 906.756 1328.63 934.108L1328.63 934.109C1330.64 939.486 1332.63 944.851 1334.67 950.177C1346.86 982.036 1360.52 1014.32 1383.44 1039.97C1408.55 1068.06 1441.99 1086.47 1476.02 1100.79C1493.62 1108.22 1511.63 1114.63 1529.64 1120.93C1531.13 1121.46 1531.82 1119.08 1530.34 1118.56C1493.29 1105.58 1455.69 1092.17 1422.61 1070.22C1390.67 1049 1367.97 1020.19 1351.81 985.311C1344.82 970.203 1338.79 953.772 1332.68 937.101C1315.13 889.252 1296.86 839.415 1252.82 813.148C1191.25 776.419 1122.86 806.325 1062.09 832.902C1050.39 838.019 1038.97 843.013 1027.93 847.384C990.311 862.277 949.446 872.076 909.123 862.128C891.199 858.019 874.615 849.164 861.053 836.461C845.802 821.699 836.452 802.048 831.683 781.363C825.312 753.654 825.857 725.332 826.402 697.015L826.402 697.015C826.701 681.521 826.999 666.028 826.165 650.637C824.56 617.164 816.599 584.263 802.723 553.76C789.365 524.85 770.025 499.184 746.043 478.541C722.062 457.897 694.012 442.769 663.836 434.205C628.727 424.195 593.726 424.511 557.988 429.032C545.184 430.652 532.431 432.544 519.68 434.435L519.679 434.435L519.677 434.436L519.675 434.436L519.673 434.436L519.671 434.436L519.669 434.437L519.668 434.437L519.666 434.437L519.664 434.437L519.662 434.438L519.66 434.438L519.658 434.438L519.657 434.438C496.824 437.825 474 441.211 450.918 443.033C416.949 445.658 379.784 447.146 346.994 435.272C311.357 422.3 288.859 387.466 275.404 353.169C258.835 310.882 255.335 266.367 254.955 221.413C254.655 184.664 251.135 146.844 238.387 112.07C226.359 79.7221 205.336 51.3883 174.31 36.1673C151.523 24.9592 126.66 20.7308 101.896 16.519L101.895 16.5189L101.895 16.5189L101.895 16.5189L101.895 16.5189L101.895 16.5188L101.895 16.5188L101.894 16.5188L101.894 16.5187L101.894 16.5187L101.894 16.5187L101.893 16.5186L101.893 16.5186L101.893 16.5186L101.893 16.5186L101.893 16.5186L101.893 16.5185L101.893 16.5185L101.893 16.5185L101.893 16.5185L101.892 16.5185L101.892 16.5185L101.892 16.5184C91.9637 14.8299 82.0509 13.1441 72.2939 11.0121C54.5397 7.13921 37.1348 1.62805 21.3154 -7.63781C19.9429 -8.43447 18.6829 -6.33283 20.0365 -5.53162Z" fill="black" fill-opacity="0.2"/>
</g>
<defs>
<clipPath id="clip0_324_1571">
<rect width="1305.44" height="1531.52" fill="white" transform="translate(0 -87.6768) rotate(-13.4569)"/>
</clipPath>
</defs>
</svg>
