<svg width="107" height="27" viewBox="0 0 107 27" fill="none" xmlns="http://www.w3.org/2000/svg">
<path d="M0 26.1551V6.94713H5.74L8.764 17.6431C8.876 18.0165 8.988 18.4365 9.1 18.9031C9.212 19.3698 9.31467 19.8178 9.408 20.2471C9.52 20.6765 9.604 21.0498 9.66 21.3671H9.884C9.92133 21.0871 9.97733 20.7418 10.052 20.3311C10.1267 19.9205 10.2107 19.4818 10.304 19.0151C10.416 18.5298 10.5373 18.0631 10.668 17.6151L13.692 6.94713H19.376V26.1551H15.736V16.4391C15.736 15.5805 15.7453 14.7218 15.764 13.8631C15.7827 13.0045 15.8013 12.2671 15.82 11.6511C15.8573 11.0351 15.876 10.6711 15.876 10.5591H15.652C15.6147 10.7271 15.5213 11.0911 15.372 11.6511C15.2227 12.2111 15.064 12.8178 14.896 13.4711C14.728 14.1245 14.5787 14.6845 14.448 15.1511L11.284 26.1551H7.924L4.76 15.1791C4.648 14.7871 4.51733 14.3205 4.368 13.7791C4.23733 13.2191 4.09733 12.6498 3.948 12.0711C3.81733 11.4925 3.696 10.9885 3.584 10.5591H3.36C3.37867 11.0631 3.39733 11.6698 3.416 12.3791C3.43467 13.0698 3.45333 13.7791 3.472 14.5071C3.49067 15.2165 3.5 15.8605 3.5 16.4391V26.1551H0Z" fill="#22C55E"/>
<path d="M39.2917 26.1551V5.91113H42.7077V26.1551H39.2917Z" fill="#22C55E"/>
<path d="M54.6344 26.4911C53.0664 26.4911 51.7597 26.2205 50.7144 25.6791C49.669 25.1191 48.885 24.2698 48.3624 23.1311C47.8397 21.9925 47.5784 20.5458 47.5784 18.7911C47.5784 17.0178 47.8397 15.5711 48.3624 14.4511C48.885 13.3125 49.669 12.4725 50.7144 11.9311C51.7597 11.3711 53.0664 11.0911 54.6344 11.0911C56.053 11.0911 57.2384 11.3618 58.1904 11.9031C59.161 12.4258 59.889 13.2378 60.3744 14.3391C60.8597 15.4405 61.1024 16.8685 61.1024 18.6231V19.6311H51.0784C51.1157 20.5458 51.2557 21.3205 51.4984 21.9551C51.741 22.5711 52.1144 23.0378 52.6184 23.3551C53.141 23.6538 53.8224 23.8031 54.6624 23.8031C55.0917 23.8031 55.493 23.7471 55.8664 23.6351C56.2397 23.5231 56.5664 23.3551 56.8464 23.1311C57.1264 22.8885 57.341 22.5898 57.4904 22.2351C57.6584 21.8805 57.7424 21.4698 57.7424 21.0031H61.1024C61.1024 21.9365 60.9344 22.7485 60.5984 23.4391C60.281 24.1298 59.8237 24.6991 59.2264 25.1471C58.6477 25.5951 57.9664 25.9311 57.1824 26.1551C56.3984 26.3791 55.549 26.4911 54.6344 26.4911ZM51.1344 17.2231H57.5464C57.5464 16.6071 57.4717 16.0845 57.3224 15.6551C57.1917 15.2258 56.9957 14.8711 56.7344 14.5911C56.4917 14.3111 56.193 14.1151 55.8384 14.0031C55.4837 13.8725 55.0824 13.8071 54.6344 13.8071C53.9064 13.8071 53.2904 13.9285 52.7864 14.1711C52.301 14.4138 51.9277 14.7871 51.6664 15.2911C51.405 15.7951 51.2277 16.4391 51.1344 17.2231Z" fill="#22C55E"/>
<path d="M65.9617 26.1551V11.4271H68.8177L69.0977 13.3871H69.2937C69.6297 12.9391 70.0217 12.5471 70.4697 12.2111C70.9364 11.8565 71.459 11.5858 72.0377 11.3991C72.635 11.1938 73.2884 11.0911 73.9977 11.0911C74.931 11.0911 75.7523 11.2591 76.4617 11.5951C77.1897 11.9311 77.759 12.4725 78.1697 13.2191C78.5804 13.9658 78.7857 14.9645 78.7857 16.2151V26.1551H75.3417V16.8311C75.3417 16.3085 75.2764 15.8791 75.1457 15.5431C75.0337 15.1885 74.8564 14.9085 74.6137 14.7031C74.3897 14.4791 74.1097 14.3205 73.7737 14.2271C73.4377 14.1338 73.0644 14.0871 72.6537 14.0871C72.0377 14.0871 71.4777 14.2365 70.9737 14.5351C70.4883 14.8338 70.0964 15.2445 69.7977 15.7671C69.5177 16.2898 69.3777 16.8965 69.3777 17.5871V26.1551H65.9617Z" fill="#22C55E"/>
<path d="M84.2733 9.15913V5.91113H87.6893V9.15913H84.2733ZM84.2733 26.1551V11.4271H87.6893V26.1551H84.2733Z" fill="#22C55E"/>
<path d="M91.7479 26.1551L97.0119 18.5671L92.1119 11.4271H96.2559L99.1679 15.9911H99.3359L102.304 11.4271H106.196L101.268 18.4831L106.476 26.1551H102.388L99.1119 21.0591H98.9439L95.6399 26.1551H91.7479Z" fill="#22C55E"/>
<path d="M30.611 7.8154L30.6115 7.8156L31.3735 5.9176L35.6169 7.62275C35.6496 7.63587 35.6795 7.65532 35.7047 7.67998C35.73 7.70465 35.7501 7.73406 35.7639 7.76652C35.7778 7.79897 35.7851 7.83385 35.7855 7.86914C35.7859 7.90443 35.7793 7.93944 35.7661 7.97218L29.7346 22.9948L29.7346 22.9949C29.7157 23.0468 29.6782 23.0892 29.6328 23.1203L25.7687 25.6367C25.7222 25.6654 25.6747 25.6915 25.625 25.7127C25.4041 25.8071 25.1611 25.8082 24.9294 25.7193C24.7928 25.6653 24.6713 25.5788 24.5757 25.4673C24.48 25.3557 24.4129 25.2226 24.3803 25.0793L23.3291 20.5894C23.3178 20.5356 23.3211 20.4815 23.3424 20.4284L29.3739 5.40575C29.4009 5.33856 29.4522 5.28732 29.5192 5.25874C29.5861 5.23016 29.6586 5.22849 29.7258 5.25547L31.3733 5.91749L30.611 7.8154ZM30.611 7.8154L29.4531 7.35053L30.6109 7.81556M30.611 7.8154L30.6109 7.81556M30.6109 7.81556L30.6114 7.81576L33.2085 8.85887L33.209 8.85908L33.2095 8.85929L28.0477 21.7106L28.0476 21.711L28.0475 21.7109L26.0075 23.0427L26.0065 23.043L26.006 23.0431L26.0054 23.0432L25.4489 20.6676L25.4489 20.6672L25.449 20.6672L30.6108 7.81591L30.6109 7.81556Z" fill="#F9FAFB" stroke="#F9FAFB" stroke-width="0.00111607"/>
<path d="M36.5005 5.676L31.2049 3.5494C31.3565 2.13805 31.6551 1.39484 32.495 1.4911C33.7779 1.63817 36.4048 2.69321 37.0341 3.31393C37.6633 3.93465 36.9648 5.24906 36.5005 5.676Z" stroke="#F9FAFB" stroke-width="2"/>
</svg>
